<svg width="16" height="16" viewBox="0 0 16 16" fill="none" xmlns="http://www.w3.org/2000/svg">
<g clip-path="url(#clip0_507_5859)">
<path d="M5.33301 12.6666L7.99967 10.6666L10.6663 12.6866" stroke="#4B4B59" stroke-linecap="round" stroke-linejoin="round"/>
<path d="M5.66699 14.6667L8.00033 13.3333L10.3337 14.6667" stroke="#4B4B59" stroke-linecap="round" stroke-linejoin="round"/>
<path d="M8 0.333344V15.6667" stroke="#4B4B59" stroke-linecap="round" stroke-linejoin="round"/>
<path d="M10.6663 3.33334L7.99967 5.33334L5.33301 3.33334" stroke="#4B4B59" stroke-linecap="round" stroke-linejoin="round"/>
<path d="M10.3337 1.33334L8.00033 2.66668L5.66699 1.33334" stroke="#4B4B59" stroke-linecap="round" stroke-linejoin="round"/>
<path d="M10.6676 12.6868L10.3076 9.33342L13.3343 8.00009" stroke="#4B4B59" stroke-linecap="round" stroke-linejoin="round"/>
<path d="M5.33366 3.33334L5.69366 6.66668L2.66699 8.00001" stroke="#4B4B59" stroke-linecap="round" stroke-linejoin="round"/>
<path d="M13.3343 8.00001L10.3076 6.66668L10.6676 3.33334" stroke="#4B4B59" stroke-linecap="round" stroke-linejoin="round"/>
<path d="M2.66699 8.00009L5.69366 9.33342L5.33366 12.6668" stroke="#4B4B59" stroke-linecap="round" stroke-linejoin="round"/>
<path d="M12.6475 13.3534L12.6608 10.6667L15.0008 9.31342" stroke="#4B4B59" stroke-linecap="round" stroke-linejoin="round"/>
<path d="M1.2998 4.16644L14.6998 11.8331" stroke="#4B4B59" stroke-linecap="round" stroke-linejoin="round"/>
<path d="M3.35333 2.64667L3.34 5.33333L1 6.68667" stroke="#4B4B59" stroke-linecap="round" stroke-linejoin="round"/>
<path d="M15.0008 6.68667L12.6608 5.33333L12.6475 2.64667" stroke="#4B4B59" stroke-linecap="round" stroke-linejoin="round"/>
<path d="M1.2998 11.8331L14.6998 4.16644" stroke="#4B4B59" stroke-linecap="round" stroke-linejoin="round"/>
<path d="M1 9.31332L3.34 10.6667L3.35333 13.3533" stroke="#4B4B59" stroke-linecap="round" stroke-linejoin="round"/>
</g>
<defs>
<clipPath id="clip0_507_5859">
<rect width="16" height="16" fill="white"/>
</clipPath>
</defs>
</svg>
