<svg width="375" height="391" viewBox="0 0 375 391" fill="none" xmlns="http://www.w3.org/2000/svg">
<path d="M290.937 238.201C294.144 235.61 296.731 232.333 298.507 228.611C300.283 224.889 301.203 220.817 301.2 216.693V110.285H316.293C318.695 110.285 320.999 109.331 322.697 107.633C324.395 105.935 325.349 103.631 325.349 101.229V95.9467H328.217C329.958 95.9467 331.628 95.2549 332.86 94.0237C334.091 92.7924 334.783 91.1224 334.783 89.3811V58.8171C334.783 57.0758 334.091 55.4058 332.86 54.1745C331.628 52.9432 329.958 52.2515 328.217 52.2515H325.349V40.4032C325.349 38.0014 324.395 35.698 322.697 33.9996C320.999 32.3013 318.695 31.3472 316.293 31.3472H301.2V28.0267C301.2 20.6712 298.278 13.6169 293.077 8.41578C287.876 3.21464 280.822 0.292681 273.466 0.292681H102.647C98.9956 0.277776 95.377 0.984132 91.9991 2.37122C88.6212 3.75831 85.5504 5.79882 82.9631 8.37564C80.3757 10.9525 78.3227 14.0149 76.9219 17.3871C75.521 20.7594 74.8 24.375 74.8 28.0267V31.3095H56.4616C54.0598 31.3095 51.7564 32.2636 50.058 33.9619C48.3597 35.6603 47.4056 37.9637 47.4056 40.3655V52.0251H44.6133C43.7511 52.0251 42.8973 52.1949 42.1008 52.5249C41.3042 52.8548 40.5804 53.3384 39.9707 53.9481C39.3611 54.5578 38.8774 55.2816 38.5475 56.0781C38.2175 56.8747 38.0477 57.7285 38.0477 58.5907V89.1547C38.0173 90.0358 38.1647 90.9139 38.481 91.7368C38.7973 92.5597 39.2761 93.3105 39.8888 93.9443C40.5016 94.5782 41.2357 95.0821 42.0474 95.4262C42.8591 95.7702 43.7317 95.9472 44.6133 95.9467H47.481V101.229C47.481 103.631 48.4352 105.935 50.1335 107.633C51.8318 109.331 54.1353 110.285 56.5371 110.285H74.8V216.693C74.8076 221.138 75.8848 225.515 77.9404 229.456C79.996 233.396 82.9698 236.784 86.6105 239.333L-0.176147 372.872L3.10666 374.721C8.54026 377.966 137.06 454.3 187.623 454.3H188C238.676 453.81 368.252 373.89 373.723 370.494L376.591 368.721L290.937 238.201ZM301.2 36.2903H316.293C317.384 36.2903 318.43 36.7236 319.202 37.4949C319.973 38.2663 320.406 39.3124 320.406 40.4032V52.0628H317.539C315.797 52.0628 314.127 52.7545 312.896 53.9858C311.665 55.2171 310.973 56.8871 310.973 58.6284V89.1924C310.948 90.0672 311.098 90.9382 311.414 91.7542C311.73 92.5702 312.207 93.3147 312.815 93.944C313.423 94.5732 314.151 95.0746 314.956 95.4185C315.76 95.7624 316.626 95.942 317.501 95.9467H320.369V101.229C320.369 102.314 319.94 103.354 319.177 104.124C318.414 104.895 317.378 105.332 316.293 105.342H301.2V36.2903ZM74.8 105.342H56.4616C55.9215 105.342 55.3866 105.236 54.8876 105.029C54.3886 104.823 53.9352 104.52 53.5533 104.138C53.1714 103.756 52.8684 103.302 52.6617 102.803C52.455 102.304 52.3487 101.769 52.3487 101.229V95.9467H55.2164C56.9577 95.9467 58.6277 95.2549 59.859 94.0237C61.0903 92.7924 61.782 91.1224 61.782 89.3811V58.8171C61.782 57.0758 61.0903 55.4058 59.859 54.1745C58.6277 52.9432 56.9577 52.2515 55.2164 52.2515H52.3487V40.4032C52.3487 39.8631 52.455 39.3283 52.6617 38.8293C52.8684 38.3303 53.1714 37.8769 53.5533 37.4949C53.9352 37.113 54.3886 36.8101 54.8876 36.6034C55.3866 36.3967 55.9215 36.2903 56.4616 36.2903H74.8V105.342ZM188 447.735L187.585 451.017V447.735C142.909 447.735 29.1049 382.38 9.37039 370.834L90.1197 246.314V260.049C90.1197 261.79 90.8114 263.46 92.0427 264.692C93.274 265.923 94.944 266.615 96.6853 266.615H109.817C111.519 266.595 113.147 265.916 114.358 264.719C115.569 263.522 116.268 261.902 116.307 260.2V244.503H261.806V260.2C261.806 261.941 262.498 263.611 263.729 264.842C264.961 266.074 266.631 266.765 268.372 266.765H281.541C283.282 266.765 284.952 266.074 286.184 264.842C287.415 263.611 288.107 261.941 288.107 260.2V245.899L367.347 366.646C347.687 378.645 232.752 447.282 188 447.735Z" fill="white"/>
</svg>
