<svg width="24" height="24" viewBox="0 0 24 24" fill="none" xmlns="http://www.w3.org/2000/svg">
<path opacity="0.4" d="M20.0402 6.82L14.2802 2.79C12.7102 1.69 10.3002 1.75 8.79023 2.92L3.78023 6.83C2.78023 7.61 1.99023 9.21 1.99023 10.47V17.37C1.99023 19.92 4.06023 22 6.61023 22H17.3902C19.9402 22 22.0102 19.93 22.0102 17.38V10.6C22.0102 9.25 21.1402 7.59 20.0402 6.82Z" fill="#F58220"/>
<path d="M12 18.75C11.59 18.75 11.25 18.41 11.25 18V15C11.25 14.59 11.59 14.25 12 14.25C12.41 14.25 12.75 14.59 12.75 15V18C12.75 18.41 12.41 18.75 12 18.75Z" fill="#F58220"/>
</svg>
