<svg width="86" height="86" viewBox="0 0 86 86" fill="none" xmlns="http://www.w3.org/2000/svg">
<path d="M43 80.2667C63.5818 80.2667 80.2667 63.5818 80.2667 43C80.2667 22.4182 63.5818 5.73334 43 5.73334C22.4182 5.73334 5.73334 22.4182 5.73334 43C5.73334 63.5818 22.4182 80.2667 43 80.2667Z" fill="#F58220"/>
<mask id="mask0_9_1380" style="mask-type:luminance" maskUnits="userSpaceOnUse" x="5" y="5" width="76" height="76">
<path d="M43 80.2667C63.5818 80.2667 80.2667 63.5818 80.2667 43C80.2667 22.4182 63.5818 5.73334 43 5.73334C22.4182 5.73334 5.73334 22.4182 5.73334 43C5.73334 63.5818 22.4182 80.2667 43 80.2667Z" fill="white"/>
</mask>
<g mask="url(#mask0_9_1380)">
<path d="M44.032 77.4746H42.1515L42.2547 71.7011H43.9059L44.032 77.4746ZM43.7855 65.9333H42.3579L42.4611 60.1599H43.6594L43.7855 65.9333Z" fill="white"/>
<path d="M58.6406 57.1613C59.128 56.7676 59.521 56.2697 59.7909 55.7042C60.0607 55.1387 60.2005 54.5199 60.2 53.8933V37.7253H62.4934C62.8583 37.7253 63.2083 37.5804 63.4663 37.3223C63.7244 37.0643 63.8694 36.7143 63.8694 36.3493V35.5467H64.3051C64.5697 35.5467 64.8234 35.4416 65.0105 35.2545C65.1976 35.0674 65.3027 34.8136 65.3027 34.5491V29.9051C65.3027 29.6405 65.1976 29.3867 65.0105 29.1997C64.8234 29.0126 64.5697 28.9075 64.3051 28.9075H63.8694V27.1072C63.8694 26.7423 63.7244 26.3923 63.4663 26.1342C63.2083 25.8762 62.8583 25.7312 62.4934 25.7312H60.2V25.2267C60.2 24.109 59.7561 23.0372 58.9658 22.2469C58.1755 21.4566 57.1037 21.0127 55.986 21.0127H30.0312C29.4764 21.0104 28.9266 21.1177 28.4133 21.3285C27.9001 21.5392 27.4335 21.8493 27.0404 22.2408C26.6472 22.6324 26.3353 23.0977 26.1224 23.6101C25.9096 24.1224 25.8 24.6718 25.8 25.2267V25.7255H23.0136C22.6487 25.7255 22.2987 25.8704 22.0407 26.1285C21.7826 26.3865 21.6376 26.7365 21.6376 27.1015V28.8731H21.2134C21.0824 28.8731 20.9526 28.8989 20.8316 28.949C20.7106 28.9991 20.6006 29.0726 20.508 29.1653C20.4153 29.2579 20.3418 29.3679 20.2917 29.4889C20.2416 29.6099 20.2158 29.7397 20.2158 29.8707V34.5147C20.2111 34.6485 20.2335 34.782 20.2816 34.907C20.3297 35.032 20.4024 35.1461 20.4955 35.2424C20.5886 35.3387 20.7002 35.4153 20.8235 35.4676C20.9468 35.5199 21.0794 35.5467 21.2134 35.5467H21.6491V36.3493C21.6491 36.7143 21.7941 37.0643 22.0521 37.3223C22.3102 37.5804 22.6602 37.7253 23.0251 37.7253H25.8V53.8933C25.8012 54.5686 25.9649 55.2338 26.2772 55.8325C26.5895 56.4312 27.0414 56.946 27.5946 57.3333L14.4079 77.6236L14.9067 77.9045C15.7323 78.3976 35.26 89.9961 42.9427 89.9961H43C50.6999 89.9216 70.3882 77.7784 71.2195 77.2624L71.6552 76.9929L58.6406 57.1613ZM60.2 26.4823H62.4934C62.6591 26.4823 62.8181 26.5481 62.9353 26.6653C63.0525 26.7825 63.1183 26.9415 63.1183 27.1072V28.8788H62.6826C62.418 28.8788 62.1642 28.9839 61.9772 29.171C61.7901 29.3581 61.685 29.6118 61.685 29.8764V34.5204C61.6811 34.6533 61.7039 34.7857 61.752 34.9096C61.8001 35.0336 61.8724 35.1468 61.9648 35.2424C62.0572 35.338 62.1678 35.4142 62.2901 35.4664C62.4124 35.5187 62.5439 35.546 62.6768 35.5467H63.1126V36.3493C63.1126 36.5141 63.0475 36.6722 62.9316 36.7892C62.8156 36.9062 62.6581 36.9728 62.4934 36.9743H60.2V26.4823ZM25.8 36.9743H23.0136C22.9316 36.9743 22.8503 36.9581 22.7745 36.9267C22.6987 36.8953 22.6298 36.8493 22.5717 36.7912C22.5137 36.7332 22.4677 36.6643 22.4363 36.5885C22.4049 36.5127 22.3887 36.4314 22.3887 36.3493V35.5467H22.8244C23.089 35.5467 23.3428 35.4416 23.5298 35.2545C23.7169 35.0674 23.822 34.8136 23.822 34.5491V29.9051C23.822 29.6405 23.7169 29.3867 23.5298 29.1997C23.3428 29.0126 23.089 28.9075 22.8244 28.9075H22.3887V27.1072C22.3887 27.0251 22.4049 26.9439 22.4363 26.8681C22.4677 26.7922 22.5137 26.7233 22.5717 26.6653C22.6298 26.6073 22.6987 26.5612 22.7745 26.5298C22.8503 26.4984 22.9316 26.4823 23.0136 26.4823H25.8V36.9743ZM43 88.9985L42.937 89.4973V88.9985C36.1487 88.9985 18.857 79.0684 15.8584 77.314L28.1278 58.394V60.4809C28.1278 60.7455 28.2329 60.9993 28.42 61.1863C28.607 61.3734 28.8608 61.4785 29.1254 61.4785H31.1206C31.3792 61.4756 31.6267 61.3724 31.8106 61.1905C31.9946 61.0087 32.1008 60.7625 32.1067 60.5039V58.1188H54.2144V60.5039C54.2144 60.7685 54.3195 61.0222 54.5066 61.2093C54.6937 61.3964 54.9475 61.5015 55.212 61.5015H57.213C57.4775 61.5015 57.7313 61.3964 57.9184 61.2093C58.1055 61.0222 58.2106 60.7685 58.2106 60.5039V58.3309L70.2506 76.6776C67.2635 78.5008 49.7998 88.9297 43 88.9985Z" fill="white"/>
<path d="M55.1662 24.2864H30.8339C29.7098 24.2864 28.7986 25.1977 28.7986 26.3217V35.9537C28.7986 37.0778 29.7098 37.9891 30.8339 37.9891H55.1662C56.2903 37.9891 57.2015 37.0778 57.2015 35.9537V26.3217C57.2015 25.1977 56.2903 24.2864 55.1662 24.2864Z" fill="#F58220"/>
<path d="M30.5529 55.7739C31.8923 55.7739 32.9781 54.6881 32.9781 53.3487C32.9781 52.0093 31.8923 50.9235 30.5529 50.9235C29.2135 50.9235 28.1277 52.0093 28.1277 53.3487C28.1277 54.6881 29.2135 55.7739 30.5529 55.7739Z" fill="#F58220"/>
<path d="M55.3324 55.7739C56.6718 55.7739 57.7576 54.6881 57.7576 53.3487C57.7576 52.0093 56.6718 50.9235 55.3324 50.9235C53.993 50.9235 52.9072 52.0093 52.9072 53.3487C52.9072 54.6881 53.993 55.7739 55.3324 55.7739Z" fill="#F58220"/>
<path d="M53.7615 27.6461C53.7273 27.6518 53.6925 27.6518 53.6583 27.6461L42.8968 23.822C42.839 23.7822 42.7962 23.7243 42.775 23.6575C42.7538 23.5906 42.7555 23.5186 42.7798 23.4528C42.8042 23.387 42.8498 23.3312 42.9094 23.2943C42.969 23.2573 43.0392 23.2412 43.109 23.2487L53.8934 27.0327C53.9677 27.0567 54.0305 27.1074 54.0696 27.1751C54.1087 27.2428 54.1212 27.3226 54.1048 27.399C54.0883 27.4754 54.0441 27.543 53.9807 27.5887C53.9173 27.6343 53.8392 27.6548 53.7615 27.6461Z" fill="white"/>
</g>
</svg>
