<svg width="24" height="24" viewBox="0 0 24 24" fill="none" xmlns="http://www.w3.org/2000/svg">
<g clip-path="url(#clip0_507_7169)">
<path d="M22.6989 9.02204C23.5326 9.81395 24 10.8698 24 11.9977C24 13.1256 23.5453 14.1694 22.7368 14.9374L17.1537 20.4447C16.4211 21.1646 15.2337 21.1886 14.4758 20.4927C13.7179 19.7968 13.7053 18.6689 14.4253 17.949L18.6316 13.7975H1.89474C0.846317 13.7975 0 12.9936 0 11.9977C0 11.0018 0.846317 10.1979 1.89474 10.1979H18.6316L14.4253 6.04639C14.0716 5.69843 13.8947 5.24248 13.8947 4.79853C13.8947 4.33059 14.0842 3.85064 14.4758 3.50268C15.2337 2.81876 16.4337 2.83076 17.1537 3.55068L22.6989 9.02204Z" fill="#F58220"/>
</g>
<defs>
<clipPath id="clip0_507_7169">
<rect width="24" height="24" fill="white" transform="matrix(0 -1 1 0 0 24)"/>
</clipPath>
</defs>
</svg>
