<svg width="25" height="24" viewBox="0 0 25 24" fill="none" xmlns="http://www.w3.org/2000/svg">
<g clip-path="url(#clip0_400_764)">
<path fill-rule="evenodd" clip-rule="evenodd" d="M22.6391 10.3976H18.8203V5.03192H22.1285C22.2639 5.03192 22.3938 5.08571 22.4895 5.18145C22.5853 5.2772 22.6391 5.40705 22.6391 5.54245V10.3976Z" fill="white"/>
<path fill-rule="evenodd" clip-rule="evenodd" d="M10.6363 10.3976H2.25342V5.03192H10.6363V10.3976Z" fill="white"/>
<path d="M13.9802 10.4844H13.2144V12.0823H13.9802V10.4844Z" fill="white"/>
<path d="M22.7666 3H1.65106C1.46583 3 1.28243 3.03665 1.11142 3.10784C0.940419 3.17903 0.785193 3.28336 0.654689 3.41481C0.524186 3.54627 0.420984 3.70224 0.351032 3.87376C0.28108 4.04528 0.24576 4.22894 0.247107 4.41417V17.5858C0.246421 17.6363 0.255855 17.6864 0.274855 17.7332C0.293854 17.7799 0.322032 17.8224 0.357725 17.8581C0.393418 17.8938 0.435902 17.922 0.482668 17.941C0.529433 17.96 0.579532 17.9694 0.630005 17.9687H2.46791C2.65209 18.346 2.93855 18.664 3.29463 18.8864C3.65072 19.1088 4.06211 19.2267 4.48195 19.2267C4.90179 19.2267 5.31319 19.1088 5.66927 18.8864C6.02536 18.664 6.31181 18.346 6.49599 17.9687H17.9829C18.1676 18.3446 18.454 18.6613 18.8095 18.8827C19.1651 19.1041 19.5755 19.2215 19.9944 19.2215C20.4132 19.2215 20.8237 19.1041 21.1793 18.8827C21.5348 18.6613 21.8212 18.3446 22.0059 17.9687H24.2982C24.3997 17.9687 24.4971 17.9284 24.5689 17.8566C24.6407 17.7848 24.6811 17.6874 24.6811 17.5858V4.9247C24.6824 4.67243 24.6339 4.42237 24.5383 4.18892C24.4427 3.95546 24.3019 3.7432 24.1239 3.56435C23.946 3.38549 23.7345 3.24355 23.5016 3.1467C23.2686 3.04985 23.0188 3 22.7666 3ZM4.4845 18.4537C4.18865 18.4537 3.89944 18.366 3.65345 18.2016C3.40746 18.0373 3.21573 17.8036 3.10252 17.5303C2.9893 17.257 2.95968 16.9562 3.01739 16.6661C3.07511 16.3759 3.21758 16.1094 3.42678 15.9002C3.63598 15.691 3.90251 15.5485 4.19268 15.4908C4.48284 15.4331 4.78361 15.4627 5.05694 15.5759C5.33027 15.6891 5.56389 15.8808 5.72826 16.1268C5.89263 16.3728 5.98036 16.662 5.98036 16.9579C5.98036 17.3546 5.82276 17.7351 5.54223 18.0156C5.2617 18.2961 4.88123 18.4537 4.4845 18.4537ZM4.4845 14.6962C3.88421 14.6962 3.30842 14.9344 2.88347 15.3583C2.45852 15.7823 2.2191 16.3576 2.21775 16.9579C2.21775 17.0447 2.21775 17.1212 2.21775 17.2029H1.0129V4.41417C1.0129 4.24492 1.08014 4.0826 1.19982 3.96292C1.31949 3.84324 1.48181 3.77601 1.65106 3.77601H8.34411V17.2029H6.72062C6.72591 17.1213 6.72591 17.0395 6.72062 16.9579C6.71934 16.3629 6.48414 15.7922 6.06578 15.3691C5.64743 14.9459 5.07948 14.7043 4.4845 14.6962ZM9.12522 17.2029V3.76579H14.5879V17.2029H9.12522ZM19.9944 18.4537C19.6985 18.4537 19.4093 18.366 19.1633 18.2016C18.9174 18.0373 18.7256 17.8036 18.6124 17.5303C18.4992 17.257 18.4696 16.9562 18.5273 16.6661C18.585 16.3759 18.7275 16.1094 18.9367 15.9002C19.1459 15.691 19.4124 15.5485 19.7026 15.4908C19.9927 15.4331 20.2935 15.4627 20.5668 15.5759C20.8402 15.6891 21.0738 15.8808 21.2382 16.1268C21.4025 16.3728 21.4902 16.662 21.4902 16.9579C21.4902 17.3546 21.3326 17.7351 21.0521 18.0156C20.7716 18.2961 20.3911 18.4537 19.9944 18.4537ZM23.9153 17.2029H22.2305C22.2358 17.1213 22.2358 17.0395 22.2305 16.9579C22.2305 16.3581 21.9922 15.7828 21.5681 15.3587C21.144 14.9345 20.5687 14.6962 19.9689 14.6962C19.369 14.6962 18.7938 14.9345 18.3696 15.3587C17.9455 15.7828 17.7072 16.3581 17.7072 16.9579C17.7019 17.0395 17.7019 17.1213 17.7072 17.2029H15.3537V3.76579H22.7666C22.9183 3.76579 23.0685 3.79584 23.2085 3.8542C23.3486 3.91256 23.4757 3.99809 23.5825 4.10584C23.6893 4.21359 23.7737 4.34143 23.8308 4.48197C23.8879 4.62252 23.9166 4.77299 23.9153 4.9247V17.2029Z" fill="white"/>
</g>
<defs>
<clipPath id="clip0_400_764">
<rect width="24.5054" height="24" fill="white" transform="translate(0.24707)"/>
</clipPath>
</defs>
</svg>
